<?xml version="1.0" encoding="utf-8"?>
<!-- Generator: Adobe Illustrator 19.0.0, SVG Export Plug-In . SVG Version: 6.00 Build 0)  -->
<svg version="1.1" id="图层_1" xmlns:sketch="http://www.bohemiancoding.com/sketch/ns"
	 xmlns="http://www.w3.org/2000/svg" xmlns:xlink="http://www.w3.org/1999/xlink" x="0px" y="0px" viewBox="128 15.4 540 54"
	 style="enable-background:new 128 15.4 540 54;" xml:space="preserve">
<style type="text/css">
	.st0{fill:#FFFFFF;}
</style>
<title>head_title</title>
<desc>Created with Sketch.</desc>
<path id="瓣瓣_xFF0C_陪你做生活的设计师" sketch:type="MSShapeGroup" class="st0" d="M205,29.6v1.8h12.8v-1.8h-4.5
	c-0.6-1.6-1.7-4-2.6-5.8l-1.8,0.5c0.8,1.6,1.8,3.7,2.4,5.3H205z M209.8,40c-0.1-2.1-0.9-5.1-1.8-7.5l-1.6,0.4
	c0.8,2.4,1.5,5.5,1.6,7.5L209.8,40z M191.1,29.6h-4.6c-0.6-1.6-1.7-3.9-2.7-5.6l-1.7,0.5c0.8,1.5,1.8,3.5,2.4,5.1h-5.6v1.8h12.3
	V29.6z M183.4,39.9c-0.1-2-0.7-4.9-1.5-7.2l-1.6,0.4c0.7,2.2,1.3,5.2,1.4,7.1L183.4,39.9z M190.8,50.8v-1.9h-4.7v0v-6h5.3V41h-3.8
	c0.8-2.3,1.6-5.4,2.3-8l-1.8-0.5c-0.4,2.5-1.3,6-2.1,8.5h-7.5v1.9h5.7v6v0h-5.2v1.9h5.2c-0.2,3.7-1.1,8.3-4.9,11.3
	c0.4,0.4,1.1,1,1.4,1.5c4.3-3.5,5.3-8.6,5.5-12.7H190.8z M203.3,24c-2.4,1.1-6.8,2.4-10.6,3.1h0v8.9c0,7.3-0.3,18.1-3.7,26.2
	c0.4,0.2,1.1,0.7,1.5,1c3.4-8.3,4-19.6,4-27.2v-7.6c0.9-0.2,1.7-0.4,2.6-0.6v10.5c0,7,0,15.6-4,22.1c0.4,0.3,1,1,1.2,1.4
	c0.6-0.4,1.5-0.7,7-2.2c0.2,1.1,0.4,2.2,0.5,3l1.5-0.3c-0.4-3-1.3-7.6-2.3-11.1l-1.4,0.3c0.5,1.9,1,4.2,1.4,6.3l-5.2,1.2
	c2.9-6.6,2.9-14.5,2.9-20.7V27.4c0.9-0.2,1.7-0.4,2.6-0.7c0.4,15.5,1,29.5,4.4,36.7c0.4-0.4,1-1.1,1.5-1.4c-3.3-6.5-4-20.7-4.3-35.8
	c0.8-0.3,1.5-0.5,2.2-0.8L203.3,24z M218.3,42.9V41h-3.9c0.8-2.4,1.7-5.6,2.4-8.3l-1.8-0.5c-0.5,2.6-1.5,6.3-2.3,8.8h-7.9v1.9h5.6
	v6.7h-4.8v1.9h4.8v11.8h2V51.5h5.5v-1.9h-5.5v-6.7H218.3z M160.3,29.6v1.8h12.8v-1.8h-4.5c-0.6-1.6-1.7-4-2.6-5.8l-1.8,0.5
	c0.8,1.6,1.8,3.7,2.4,5.3H160.3z M165.2,40c-0.1-2.1-0.9-5.1-1.8-7.5l-1.6,0.4c0.8,2.4,1.5,5.5,1.6,7.5L165.2,40z M146.5,29.6h-4.6
	c-0.6-1.6-1.7-3.9-2.7-5.6l-1.7,0.5c0.8,1.5,1.8,3.5,2.4,5.1h-5.6v1.8h12.3V29.6z M138.8,39.9c-0.1-2-0.7-4.9-1.5-7.2l-1.6,0.4
	c0.7,2.2,1.3,5.2,1.4,7.1L138.8,39.9z M146.2,50.8v-1.9h-4.7v0v-6h5.3V41H143c0.8-2.3,1.6-5.4,2.3-8l-1.8-0.5
	c-0.4,2.5-1.3,6-2.1,8.5h-7.5v1.9h5.7v6v0h-5.2v1.9h5.2c-0.2,3.7-1.1,8.3-4.9,11.3c0.4,0.4,1.1,1,1.4,1.5c4.3-3.5,5.3-8.6,5.5-12.7
	H146.2z M158.7,24c-2.4,1.1-6.8,2.4-10.6,3.1h0v8.9c0,7.3-0.3,18.1-3.7,26.2c0.4,0.2,1.1,0.7,1.5,1c3.4-8.3,4-19.6,4-27.2v-7.6
	c0.9-0.2,1.7-0.4,2.6-0.6v10.5c0,7,0,15.6-4,22.1c0.4,0.3,1,1,1.2,1.4c0.6-0.4,1.5-0.7,7-2.2c0.2,1.1,0.4,2.2,0.5,3l1.5-0.3
	c-0.4-3-1.3-7.6-2.3-11.1l-1.4,0.3c0.5,1.9,1,4.2,1.4,6.3l-5.2,1.2c2.9-6.6,2.9-14.5,2.9-20.7V27.4c0.9-0.2,1.7-0.4,2.6-0.7
	c0.4,15.5,1,29.5,4.4,36.7c0.4-0.4,1-1.1,1.5-1.4c-3.3-6.5-4-20.7-4.3-35.8c0.8-0.3,1.5-0.5,2.2-0.8L158.7,24z M173.7,42.9V41h-3.9
	c0.8-2.4,1.7-5.6,2.4-8.3l-1.8-0.5c-0.5,2.6-1.5,6.3-2.3,8.8h-7.9v1.9h5.6v6.7h-4.8v1.9h4.8v11.8h2V51.5h5.5v-1.9h-5.5v-6.7H173.7z
	 M226.3,64.1c4.1-1.6,7-5,7-9.6c0-2.7-1.1-4.5-3.2-4.5c-1.5,0-2.7,0.9-2.7,2.7c0,1.8,1.1,2.7,2.7,2.7c0.3,0,0.6,0,0.9-0.1
	c-0.2,3.5-2.1,5.6-5.5,7.2L226.3,64.1z M304.9,29.1h-10.2c-0.4-1.7-1.3-4-2.2-5.9l-1.9,0.4c0.8,1.7,1.5,3.8,2,5.5h-11v2h23.3V29.1z
	 M288.9,39.9c-0.3-2.2-1.3-5.6-2.5-8.1l-1.9,0.4c1.1,2.6,2.1,6,2.4,8.2L288.9,39.9z M278.7,25.3l-0.4,0.1h-10.3v38h2v-36h7.4
	c-1.1,3-2.6,7-4.2,10.4c3.6,3.7,4.5,6.8,4.5,9.4c0,1.4-0.3,2.8-1.1,3.3c-0.4,0.3-0.9,0.4-1.5,0.4c-0.8,0.1-1.8,0-3,0
	c0.4,0.6,0.6,1.4,0.7,2c1,0.1,2.1,0,3,0c0.8-0.1,1.6-0.3,2.2-0.7c1.1-0.7,1.6-2.7,1.6-4.8c0-2.8-0.9-6.1-4.4-9.8
	c1.6-3.6,3.3-7.8,4.7-11.4L278.7,25.3z M300.6,49.2v10h-15.3v-10H300.6z M283.3,63.4h2.1v-2.2h15.3v2.1h2.1v-16h-19.4V63.4z
	 M298.3,41c1.3-2.5,2.7-5.9,3.8-8.6l-2.2-0.6c-0.8,2.7-2.3,6.6-3.7,9.2h-15.8v2h25.7v-2H298.3z M320.7,23.7
	c-2.6,6.9-6.9,13.7-11.4,18.1c0.4,0.4,1.1,1.5,1.3,1.9c1.9-1.9,3.7-4.1,5.4-6.6v26.2h2V33.9c1.8-3,3.4-6.3,4.8-9.7L320.7,23.7z
	 M328.7,41.8c-1.4,5.5-3.6,10.9-6.5,14.4c0.5,0.3,1.5,0.9,1.8,1.2c2.8-3.7,5.2-9.3,6.7-15.2L328.7,41.8z M347.6,34.3
	c-0.4,2.4-0.9,5.1-1.3,6.8l1.8,0.4c0.6-2.2,1.4-5.8,1.9-8.8l-1.4-0.4l-0.4,0.1h-19.4c0.9-2.6,1.8-5.4,2.4-8.1l-2.1-0.4
	c-1.5,6.6-3.9,13.2-7.1,17.4c0.5,0.3,1.4,1,1.8,1.3c1.6-2.2,3.1-5,4.3-8.1h7.7v26.2c0,0.6-0.2,0.7-0.7,0.7c-0.6,0-2.5,0.1-4.7,0
	c0.3,0.7,0.6,1.5,0.7,2.2c2.7,0,4.4,0,5.5-0.4c1-0.4,1.3-1.1,1.3-2.5V34.3H347.6z M342.1,42.1c2.6,4.7,5,11,5.7,15l2-0.7
	c-0.8-4.1-3.2-10.3-5.9-15L342.1,42.1z M363.2,23.8c-2.2,7-5.9,13.9-9.9,18.4c0.4,0.4,1,1.5,1.3,1.9c1.8-2.1,3.5-4.6,5-7.3v26.6h2
	V33c1.3-2.8,2.6-5.7,3.5-8.7L363.2,23.8z M376.2,45.4v11.2h-8.6V45.4H376.2z M378.1,58.5V43.4h-5.2v-9.1h6.4v-2h-6.4V24h-2v8.4h-6.7
	v2h6.7v9.1h-5.3v17.9h1.9v-2.8H378.1z M382.8,34.2h7.5c-0.7,6.5-2,12-4.1,16.5c-2.1-5.1-3-10.7-3.6-15.9L382.8,34.2z M394.2,34.2
	v-1.9h-11c0.7-2.7,1.3-5.5,1.8-8.4l-1.9-0.3c-1.1,7.1-2.9,14-5.9,18.7c0.5,0.3,1.3,1,1.6,1.4c0.9-1.5,1.7-3.2,2.5-5.1
	c0.6,4.8,1.7,9.9,3.7,14.4c-2.2,3.8-5.2,6.8-9.3,9.2c0.4,0.4,1.2,1.2,1.5,1.5c3.8-2.3,6.6-5.1,8.8-8.6c1.8,3.3,4.2,6.3,7.5,8.6
	c0.3-0.6,1-1.3,1.4-1.7c-3.4-2.2-5.9-5.3-7.7-8.8c2.6-5,4.1-11.1,5-18.7H394.2z M419.5,59.8V47.2h14.8v-2.1h-14.8V34.4h16.4v-2
	h-16.4v-8.9h-2.2v8.9h-10.2c1-2.4,1.9-5,2.7-7.6l-2.2-0.4c-1.8,6.4-4.6,12.5-8.3,16.5c0.5,0.3,1.5,0.9,1.9,1.2
	c1.8-2.1,3.5-4.7,4.9-7.7h11.1v10.8h-13.8v2.1h13.8v12.5h-18.3v2.1h38.9v-2.1H419.5z M451.6,40.6c-1.8-1.2-5.4-3.2-8.1-4.6l-1.1,1.5
	c2.7,1.5,6.2,3.6,8,4.8L451.6,40.6z M445.5,62.7c2.5-4,5.8-9.8,8.1-14.4L452,47c-2.5,4.9-6,11-8.4,14.3L445.5,62.7z M444.5,25.5
	c2.8,1.5,6.5,3.6,8.4,4.9l1.2-1.7c-1.9-1.3-5.6-3.3-8.4-4.7L444.5,25.5z M476.7,59.4h-17.2V48.7h17.2V59.4z M482,38.4v-2h-12.6v-8.7
	c4-0.7,7.8-1.5,10.6-2.4l-1.7-1.6c-4.9,1.6-14.2,3-21.9,3.8c0.2,0.5,0.5,1.3,0.6,1.8c3.3-0.4,6.9-0.7,10.3-1.2v8.3h-13.2v2h13.2v8.3
	h-9.8v16.6h2v-1.9h17.2v1.7h2V46.7h-9.4v-8.3H482z M501,43h-10.5V32.5H501V43z M490.5,56.7V44.9H501v11.8H490.5z M495.5,23.4
	c-0.4,2.1-1.4,5.1-2.1,7.2h-4.9v31.8h2v-3.6h12.5V30.5h-7.7c0.7-1.9,1.6-4.4,2.4-6.6L495.5,23.4z M524.7,30.5H511
	c0.8-2.2,1.5-4.5,2-6.9l-2.1-0.5c-1.4,6.2-3.7,12.4-6.7,16.4c0.5,0.3,1.5,0.8,1.8,1.1c1.6-2.2,3-5.1,4.3-8.2h12.3
	c-0.7,18.8-1.4,25.6-2.9,27.2c-0.4,0.6-1,0.7-1.8,0.7c-1,0-3.6,0-6.5-0.3c0.4,0.6,0.6,1.4,0.7,2.1c2.4,0.2,5,0.2,6.3,0.1
	c1.4-0.1,2.2-0.4,3.1-1.4c1.8-2.1,2.4-8.8,3.1-29.2V30.5z M517.8,50.2c-1.4-2.6-4.6-6.9-7.2-10.1l-1.7,1c2.6,3.2,5.7,7.6,7.1,10.3
	L517.8,50.2z M552.5,27.2h8.9v8.5c0,2.6,0.5,3.6,2.8,3.6h3.6c0.8,0,1.6,0,2.1-0.2c-0.1-0.5-0.2-1.4-0.2-1.9
	c-0.5,0.1-1.3,0.2-1.9,0.2h-3.5c-0.7,0-0.8-0.4-0.8-1.6V25.2h-12.9v4.9c0,3.4-1.1,7.3-7.1,10.1c0.4,0.4,1.1,1.2,1.4,1.6
	c6.3-3.1,7.7-7.7,7.7-11.7V27.2z M542.3,31c-1.4-1.8-4.2-4.6-6.6-6.5l-1.5,1.3c2.3,2,5.2,4.9,6.5,6.7L542.3,31z M539.3,57.6V37.4
	h-8.8v2.1h6.7v17.2c0,1.9-1.5,3.3-2.2,3.8c0.4,0.4,1.1,1.3,1.3,1.8c0.6-0.7,1.6-1.5,9.2-6.6c-0.3-0.4-0.6-1.1-0.7-1.7L539.3,57.6z
	 M564.7,45.1c-1.7,4.1-4.5,7.5-7.8,10.2c-3.3-2.7-5.9-6.2-7.7-10.2H564.7z M566.2,42.9l-0.4,0.1h-20.5v2h1.8
	c1.8,4.5,4.5,8.3,8.1,11.4c-3.5,2.4-7.3,4-11.1,5c0.4,0.5,0.9,1.3,1.1,1.8c4.1-1.1,8.1-2.9,11.7-5.5c3.4,2.6,7.5,4.5,12.1,5.7
	c0.3-0.6,0.9-1.5,1.4-1.9c-4.5-1-8.4-2.7-11.8-5.1c3.9-3.3,7.2-7.5,9-12.9L566.2,42.9z M587.2,31.1c-1.4-1.8-4.4-4.6-6.8-6.6
	l-1.5,1.3c2.4,2.1,5.4,5.1,6.8,6.9L587.2,31.1z M584,57.2V37.4h-9.4v2.1h7.3v17.3c0,1.8-1.3,3-2,3.4c0.4,0.5,1,1.4,1.2,1.9
	c0.6-0.8,1.7-1.6,9.6-7.1c-0.2-0.4-0.6-1.3-0.8-1.8L584,57.2z M614.2,38.5h-11.8V23.6h-2.2v14.9h-11.5v2.1h11.5v22.7h2.2V40.6h11.8
	V38.5z M623,28.5h-1.9v21.2h1.9V28.5z M628,41.1c0,8-0.7,15.3-6.8,20.9c0.5,0.2,1.2,0.9,1.5,1.4c6.4-5.9,7.3-13.6,7.3-22.2V23.5h-2
	V41.1z M657.8,27.9v-2h-24.5v2h10.8v6.3h-9v22.9h2V36.2h7v27.1h2V36.2h7.6v17.9c0,0.4-0.1,0.6-0.7,0.6c-0.5,0-2.1,0-4.1,0
	c0.3,0.6,0.7,1.4,0.7,1.9c2.5,0,4,0,4.9-0.4c0.9-0.4,1.1-1,1.1-2.2V34.2h-9.6v-6.3H657.8z"/>
</svg>
