<?xml version="1.0" encoding="utf-8"?>
<!-- Generator: Adobe Illustrator 19.0.0, SVG Export Plug-In . SVG Version: 6.00 Build 0)  -->
<svg version="1.1" id="图层_1" xmlns:sketch="http://www.bohemiancoding.com/sketch/ns"
	 xmlns="http://www.w3.org/2000/svg" xmlns:xlink="http://www.w3.org/1999/xlink" x="0px" y="0px" viewBox="-101 28.4 80 28"
	 style="enable-background:new -101 28.4 80 28;" xml:space="preserve">
<style type="text/css">
	.st0{fill:#FFFFFF;}
</style>
<title>logo_wt</title>
<desc>Created with Sketch.</desc>
<g id="Group-3" transform="translate(314.000000, 565.000000)" sketch:type="MSLayerGroup">
	<path id="Fill-3" sketch:type="MSShapeGroup" class="st0" d="M-404.9-515.4h-4.5c3.1,2.9,7.3,4.7,11.8,4.7h6.1v-6.2
		c0-2.1-0.4-4.2-1.1-6.1C-394.8-518.5-399.5-515.4-404.9-515.4"/>
	<path id="Fill-5" sketch:type="MSShapeGroup" class="st0" d="M-410.3-520.9c0-5.4,3-10.2,7.5-12.6c-1.9-0.7-3.9-1.1-6-1.1h-6.1v6.2
		c0,4.6,1.8,8.8,4.7,12V-520.9z"/>
	<path id="Fill-7" sketch:type="MSShapeGroup" class="st0" d="M-338.1-523v-1.5h-2.5c0.5-1.6,1-3.3,1.3-5l-1.4-0.5l-0.5,2.8
		c-0.2,1-0.4,1.9-0.7,2.7h-3.8v1.5h2.9v3.9h-2.4v1.5h2.4v6.4h1.5v-6.4h2.9v-1.5h-2.9v-3.9H-338.1z M-359.5-524.8l1.3-0.4
		c-0.2-1.5-0.5-3-0.9-4.6l-1.2,0.4C-360-527.9-359.7-526.4-359.5-524.8L-359.5-524.8z M-346.4-526c-0.1-1.3-0.1-3.3-0.1-6.1l0.8-0.2
		c0.1,0,0.2,0,0.3-0.1l-0.5-1.4c-2.2,0.5-4.7,1-7.5,1.3v4.3c0,1,0,1.8,0,2.5c0,0.9,0,1.6-0.1,2.3c-0.1,1.6-0.2,3-0.4,4.2
		c-0.5,2.7-1.4,5.1-2.8,7.1l1.3,1c1.4-2.2,2.4-4.9,2.9-7.9c0.2-1.3,0.4-2.9,0.4-4.6c0.1-0.8,0.1-1.6,0.1-2.6c0-0.8,0-1.7,0-2.8v-2.1
		l1.2-0.2l0,18.2l-0.6,0.1c0,0,0.1,0.7,0.2,1.2c0.5-0.1,2.7-0.8,3.3-1.1c0.1,0.4,0.2,0.8,0.2,1.4l1.2-0.4c0,0-1.1-4.1-1.4-5
		l-0.9,0.2c0.3,1.2,0.5,2,0.6,2.7c-0.4,0.2-1,0.4-1.2,0.4l0-18c0.6-0.1,1-0.2,1.4-0.3c0.1,4.7,0.2,8.2,0.4,10.4
		c0.4,4.1,1.2,7.5,2.4,10.2l1.3-0.8c-1.1-2.2-1.9-5.4-2.3-9.6C-346.2-523.2-346.3-524.7-346.4-526L-346.4-526z M-342.6-531.5h-3.2
		v1.5h7.4v-1.5h-2.7l-0.2-0.7c-0.1-0.3-0.1-0.5-0.2-0.7c-0.1-0.5-0.3-1-0.5-1.5l-1.5,0.4l0.4,1.3L-342.6-531.5z M-353.9-531.5h-2.5
		c-0.1-0.5-0.2-1-0.4-1.4c-0.2-0.6-0.3-1.1-0.5-1.6l-1.4,0.5l0.4,1.3c0.1,0.5,0.2,0.9,0.3,1.3h-3.1v1.5h7.1V-531.5z M-354.3-519.4
		h-2.6l0.1-1.3c0-0.3,0-1.1,0.1-2.5h2.7v-1.5h-2.1c0.5-1.6,0.9-3.2,1.2-4.9l-1.4-0.4c-0.3,2-0.7,3.7-1.1,5.2h-3.9v1.5h3.1
		c0,1.2,0,2,0,2.4c0,0.2,0,0.4,0,0.6l-0.1,0.7h-2.8v1.5h2.7c-0.2,1.3-0.5,2.3-0.8,3c-0.4,0.9-1,1.7-1.9,2.5l1.2,1.2
		c1-1,1.7-2,2.1-3.1c0.2-0.5,0.4-1,0.5-1.7c0.1-0.5,0.2-1.1,0.4-1.9h2.7V-519.4z M-345-529.5c0.2,0.7,0.3,1.4,0.5,2.4l0.2,1.2
		c0,0.2,0,0.4,0.1,0.6c0.1,0.3,0.1,0.5,0.1,0.6l1.3-0.4c-0.2-0.9-0.3-1.7-0.5-2.3c-0.2-0.9-0.4-1.7-0.6-2.4L-345-529.5z"/>
	<path id="Fill-7_1_" sketch:type="MSShapeGroup" class="st0" d="M-362.1-523v-1.5h-2.5c0.5-1.6,1-3.3,1.3-5l-1.4-0.5l-0.5,2.8
		c-0.2,1-0.4,1.9-0.7,2.7h-3.8v1.5h2.9v3.9h-2.4v1.5h2.4v6.4h1.5v-6.4h2.9v-1.5h-2.9v-3.9H-362.1z M-383.5-524.8l1.3-0.4
		c-0.2-1.5-0.5-3-0.9-4.6l-1.2,0.4C-384-527.9-383.7-526.4-383.5-524.8L-383.5-524.8z M-370.4-526c-0.1-1.3-0.1-3.3-0.1-6.1l0.8-0.2
		c0.1,0,0.2,0,0.3-0.1l-0.5-1.4c-2.2,0.5-4.7,1-7.5,1.3v4.3c0,1,0,1.8,0,2.5c0,0.9,0,1.6-0.1,2.3c-0.1,1.6-0.2,3-0.4,4.2
		c-0.5,2.7-1.4,5.1-2.8,7.1l1.3,1c1.4-2.2,2.4-4.9,2.9-7.9c0.2-1.3,0.4-2.9,0.4-4.6c0.1-0.8,0.1-1.6,0.1-2.6c0-0.8,0-1.7,0-2.8v-2.1
		l1.2-0.2l0,18.2l-0.6,0.1c0,0,0.1,0.7,0.2,1.2c0.5-0.1,2.7-0.8,3.3-1.1c0.1,0.4,0.2,0.8,0.2,1.4l1.2-0.4c0,0-1.1-4.1-1.4-5
		l-0.9,0.2c0.3,1.2,0.5,2,0.6,2.7c-0.4,0.2-1,0.4-1.2,0.4l0-18c0.6-0.1,1-0.2,1.4-0.3c0.1,4.7,0.2,8.2,0.4,10.4
		c0.4,4.1,1.2,7.5,2.4,10.2l1.3-0.8c-1.1-2.2-1.9-5.4-2.3-9.6C-370.2-523.2-370.3-524.7-370.4-526L-370.4-526z M-366.6-531.5h-3.2
		v1.5h7.4v-1.5h-2.7l-0.2-0.7c-0.1-0.3-0.1-0.5-0.2-0.7c-0.1-0.5-0.3-1-0.5-1.5l-1.5,0.4l0.4,1.3L-366.6-531.5z M-377.9-531.5h-2.5
		c-0.1-0.5-0.2-1-0.4-1.4c-0.2-0.6-0.3-1.1-0.5-1.6l-1.4,0.5l0.4,1.3c0.1,0.5,0.2,0.9,0.3,1.3h-3.1v1.5h7.1V-531.5z M-378.3-519.4
		h-2.6l0.1-1.3c0-0.3,0-1.1,0.1-2.5h2.7v-1.5h-2.1c0.5-1.6,0.9-3.2,1.2-4.9l-1.4-0.4c-0.3,2-0.7,3.7-1.1,5.2h-3.9v1.5h3.1
		c0,1.2,0,2,0,2.4c0,0.2,0,0.4,0,0.6l-0.1,0.7h-2.8v1.5h2.7c-0.2,1.3-0.5,2.3-0.8,3c-0.4,0.9-1,1.7-1.9,2.5l1.2,1.2
		c1-1,1.7-2,2.1-3.1c0.2-0.5,0.4-1,0.5-1.7c0.1-0.5,0.2-1.1,0.4-1.9h2.7V-519.4z M-369-529.5c0.2,0.7,0.3,1.4,0.5,2.4l0.2,1.2
		c0,0.2,0,0.4,0.1,0.6c0.1,0.3,0.1,0.5,0.1,0.6l1.3-0.4c-0.2-0.9-0.3-1.7-0.5-2.3c-0.2-0.9-0.4-1.7-0.6-2.4L-369-529.5z"/>
</g>
</svg>
