<?xml version="1.0" encoding="utf-8"?>
<!-- Generator: Adobe Illustrator 19.0.0, SVG Export Plug-In . SVG Version: 6.00 Build 0)  -->
<svg version="1.1" id="图层_1" xmlns:sketch="http://www.bohemiancoding.com/sketch/ns"
	 xmlns="http://www.w3.org/2000/svg" xmlns:xlink="http://www.w3.org/1999/xlink" x="0px" y="0px" viewBox="-101 28.4 80 28"
	 style="enable-background:new -101 28.4 80 28;" xml:space="preserve">
<style type="text/css">
	.st0{opacity:0.5;fill:url(#Shape_1_);enable-background:new    ;}
	.st1{fill:#03061F;}
</style>
<title>logo</title>
<desc>Created with Sketch.</desc>
<g id="Portrait" transform="translate(-314.000000, -523.000000)" sketch:type="MSArtboardGroup">
	<g id="logo-2" transform="translate(314.000000, 525.000000)" sketch:type="MSLayerGroup">
		
			<linearGradient id="Shape_1_" gradientUnits="userSpaceOnUse" x1="-196.8081" y1="81.1315" x2="-197.8081" y2="81.1315" gradientTransform="matrix(24.0943 0 0 -23.9247 4665.0508 1981.4657)">
			<stop  offset="0" style="stop-color:#E60012"/>
			<stop  offset="1" style="stop-color:#E60012;stop-opacity:0.5"/>
		</linearGradient>
		<path id="Shape" sketch:type="MSShapeGroup" class="st0" d="M-101,34.7c0,9.8,8,17.7,17.8,17.7h6.3v-6.2c0-9.8-8-17.7-17.8-17.7
			h-6.3V34.7L-101,34.7z"/>
		<path id="Shape_2_" sketch:type="MSShapeGroup" class="st1" d="M-30.2,33.4c0.2,0.7,0.3,1.4,0.5,2.3l0.2,1.2
			c0,0.2,0.1,0.4,0.1,0.6c0.1,0.3,0.1,0.5,0.1,0.6l1.3-0.4c-0.2-0.9-0.3-1.7-0.5-2.3c-0.2-0.9-0.4-1.7-0.6-2.4L-30.2,33.4
			L-30.2,33.4z M-27.7,31.4h-3.2v1.5h7.5v-1.5h-2.8l-0.2-0.7c-0.1-0.3-0.1-0.5-0.2-0.7c-0.1-0.5-0.3-1-0.5-1.5l-1.5,0.4l0.4,1.3
			L-27.7,31.4L-27.7,31.4z M-45,38.1l1.3-0.4c-0.2-1.5-0.5-3-0.9-4.6l-1.2,0.4C-45.5,35-45.2,36.5-45,38.1L-45,38.1z M-39.3,31.4
			h-2.6c-0.1-0.5-0.2-1-0.4-1.4c-0.2-0.6-0.3-1.1-0.5-1.6l-1.4,0.5l0.4,1.3c0.1,0.5,0.2,0.9,0.3,1.2h-3.2v1.5h7.3L-39.3,31.4
			L-39.3,31.4z M-23.1,39.9v-1.5h-2.6c0.5-1.6,1-3.3,1.3-5l-1.4-0.5l-0.5,2.8c-0.2,1-0.4,1.9-0.7,2.6h-3.9v1.5h3v3.9h-2.4v1.5h2.4
			v6.4h1.6v-6.4h3v-1.5h-3v-3.9L-23.1,39.9L-23.1,39.9z M-31.6,36.9c-0.1-1.3-0.1-3.3-0.1-6l0.8-0.2c0.1,0,0.2,0,0.3-0.1l-0.5-1.4
			c-2.3,0.5-4.8,1-7.7,1.3v4.3c0,1,0,1.8,0,2.5c0,0.8,0,1.6-0.1,2.3c-0.1,1.6-0.2,2.9-0.4,4.2c-0.5,2.7-1.4,5.1-2.9,7.1l1.3,1
			c1.5-2.2,2.5-4.9,2.9-7.9c0.2-1.3,0.4-2.9,0.4-4.6c0.1-0.8,0.1-1.6,0.1-2.6c0-0.8,0-1.7,0-2.8v-2.1l1.2-0.2l0,18.1l-0.7,0.1
			c0,0,0.1,0.7,0.2,1.2c0.5-0.1,2.8-0.8,3.4-1.1c0.1,0.4,0.2,0.8,0.3,1.4l1.2-0.4c0,0-1.1-4.1-1.4-5l-0.9,0.2c0.3,1.2,0.5,2,0.6,2.7
			c-0.5,0.2-1,0.4-1.3,0.4l0-17.9c0.6-0.1,1.1-0.2,1.5-0.3c0.1,4.7,0.2,8.2,0.4,10.3c0.4,4.1,1.2,7.5,2.5,10.1l1.3-0.8
			c-1.2-2.2-1.9-5.4-2.3-9.6C-31.4,39.7-31.5,38.2-31.6,36.9L-31.6,36.9z M-39.7,43.5h-2.6l0.1-1.2c0-0.3,0-1.1,0.1-2.5h2.7v-1.5
			h-2.1c0.5-1.6,0.9-3.2,1.2-4.8l-1.4-0.4c-0.3,2-0.7,3.7-1.1,5.2h-4v1.5h3.2c0,1.2,0,2,0,2.4c0,0.2,0,0.4,0,0.6l-0.1,0.7h-2.8V45
			h2.7c-0.2,1.3-0.5,2.3-0.8,3c-0.4,0.8-1.1,1.7-2,2.4l1.2,1.2c1-1,1.7-2,2.2-3.1c0.2-0.5,0.4-1,0.5-1.7c0.1-0.5,0.2-1.1,0.4-1.9
			h2.7L-39.7,43.5L-39.7,43.5z"/>
		<path id="Shape_3_" sketch:type="MSShapeGroup" class="st1" d="M-56.2,33.4c0.2,0.7,0.3,1.4,0.5,2.3l0.2,1.2
			c0,0.2,0.1,0.4,0.1,0.6c0.1,0.3,0.1,0.5,0.1,0.6l1.3-0.4c-0.2-0.9-0.3-1.7-0.5-2.3c-0.2-0.9-0.4-1.7-0.6-2.4L-56.2,33.4
			L-56.2,33.4z M-53.7,31.4h-3.2v1.5h7.5v-1.5h-2.8l-0.2-0.7c-0.1-0.3-0.1-0.5-0.2-0.7c-0.1-0.5-0.3-1-0.5-1.5l-1.5,0.4l0.4,1.3
			L-53.7,31.4L-53.7,31.4z M-71,38.1l1.3-0.4c-0.2-1.5-0.5-3-0.9-4.6l-1.2,0.4C-71.5,35-71.2,36.5-71,38.1L-71,38.1z M-65.3,31.4
			h-2.6c-0.1-0.5-0.2-1-0.4-1.4c-0.2-0.6-0.3-1.1-0.5-1.6l-1.4,0.5l0.4,1.3c0.1,0.5,0.2,0.9,0.3,1.2h-3.2v1.5h7.3L-65.3,31.4
			L-65.3,31.4z M-49.1,39.9v-1.5h-2.6c0.5-1.6,1-3.3,1.3-5l-1.4-0.5l-0.5,2.8c-0.2,1-0.4,1.9-0.7,2.6h-3.9v1.5h3v3.9h-2.4v1.5h2.4
			v6.4h1.6v-6.4h3v-1.5h-3v-3.9L-49.1,39.9L-49.1,39.9z M-57.6,36.9c-0.1-1.3-0.1-3.3-0.1-6l0.8-0.2c0.1,0,0.2,0,0.3-0.1l-0.5-1.4
			c-2.3,0.5-4.8,1-7.7,1.3v4.3c0,1,0,1.8,0,2.5c0,0.8,0,1.6-0.1,2.3c-0.1,1.6-0.2,2.9-0.4,4.2c-0.5,2.7-1.4,5.1-2.9,7.1l1.3,1
			c1.5-2.2,2.5-4.9,2.9-7.9c0.2-1.3,0.4-2.9,0.4-4.6c0.1-0.8,0.1-1.6,0.1-2.6c0-0.8,0-1.7,0-2.8v-2.1l1.2-0.2l0,18.1l-0.7,0.1
			c0,0,0.1,0.7,0.2,1.2c0.5-0.1,2.8-0.8,3.4-1.1c0.1,0.4,0.2,0.8,0.3,1.4l1.2-0.4c0,0-1.1-4.1-1.4-5l-0.9,0.2c0.3,1.2,0.5,2,0.6,2.7
			c-0.5,0.2-1,0.4-1.3,0.4l0-17.9c0.6-0.1,1.1-0.2,1.5-0.3c0.1,4.7,0.2,8.2,0.4,10.3c0.4,4.1,1.2,7.5,2.5,10.1l1.3-0.8
			c-1.2-2.2-1.9-5.4-2.3-9.6C-57.4,39.7-57.5,38.2-57.6,36.9L-57.6,36.9z M-65.7,43.5h-2.6l0.1-1.2c0-0.3,0-1.1,0.1-2.5h2.7v-1.5
			h-2.1c0.5-1.6,0.9-3.2,1.2-4.8l-1.4-0.4c-0.3,2-0.7,3.7-1.1,5.2h-4v1.5h3.2c0,1.2,0,2,0,2.4c0,0.2,0,0.4,0,0.6l-0.1,0.7h-2.8V45
			h2.7c-0.2,1.3-0.5,2.3-0.8,3c-0.4,0.8-1.1,1.7-2,2.4l1.2,1.2c1-1,1.7-2,2.2-3.1c0.2-0.5,0.4-1,0.5-1.7c0.1-0.5,0.2-1.1,0.4-1.9
			h2.7L-65.7,43.5L-65.7,43.5z"/>
	</g>
</g>
</svg>
